<?xml version="1.0" encoding="utf-8"?>
<!-- Generator: Adobe Illustrator 27.5.0, SVG Export Plug-In . SVG Version: 6.00 Build 0)  -->
<svg version="1.1" id="Layer_1" xmlns="http://www.w3.org/2000/svg" xmlns:xlink="http://www.w3.org/1999/xlink" x="0px" y="0px"
	 viewBox="0 0 5000 2916" style="enable-background:new 0 0 5000 2916;" xml:space="preserve">
<g>
	<rect x="0" style="fill-rule:evenodd;clip-rule:evenodd;fill:#1E003D;" width="5000" height="2916"/>
	<g>
		<defs>
			<path id="SVGID_1_" d="M690.52,2105.9c0,317.962-264.714,605.173-690.52,810.1C0,1919.844,0,991.929,0,0h1141.677
				c64.212,104.409,98.756,215.263,98.756,330.129c0,206.349-111.487,399.748-306.142,566.108
				c-31.38,22.785-61.126,46.174-89.151,70.121C237.791,1485.434,690.52,1658.859,690.52,2105.9"/>
		</defs>
		<clipPath id="SVGID_00000154389461227767923730000001782347686542189729_">
			<use xlink:href="#SVGID_1_"  style="overflow:visible;"/>
		</clipPath>
		
			<linearGradient id="SVGID_00000005963767326551256940000018179149090368004234_" gradientUnits="userSpaceOnUse" x1="267.5402" y1="1279.4854" x2="953.2006" y2="1626.5471">
			<stop  offset="0" style="stop-color:#3E005D"/>
			<stop  offset="1" style="stop-color:#641087"/>
		</linearGradient>
		
			<rect x="0" style="clip-path:url(#SVGID_00000154389461227767923730000001782347686542189729_);fill:url(#SVGID_00000005963767326551256940000018179149090368004234_);" width="1240.433" height="2916"/>
	</g>
	<g>
		<defs>
			<path id="SVGID_00000129913450739985893100000013654265771978919096_" d="M0,2521.559V440.768V0h925.121
				C497.503,435.264,646.715,693.542,795.712,984.71C1089.359,1558.575,969.082,2078.27,0,2521.559"/>
		</defs>
		<clipPath id="SVGID_00000020371586688404350770000015120590448885999544_">
			<use xlink:href="#SVGID_00000129913450739985893100000013654265771978919096_"  style="overflow:visible;"/>
		</clipPath>
		
			<linearGradient id="SVGID_00000173136841976705525160000011835271565842641583_" gradientUnits="userSpaceOnUse" x1="1195.8127" y1="1407.0682" x2="226.9986" y2="1189.4067">
			<stop  offset="0" style="stop-color:#F95C97"/>
			<stop  offset="1" style="stop-color:#450561"/>
		</linearGradient>
		
			<rect x="0" style="opacity:0.55;clip-path:url(#SVGID_00000020371586688404350770000015120590448885999544_);fill:url(#SVGID_00000173136841976705525160000011835271565842641583_);" width="1089.359" height="2521.559"/>
	</g>
	<g>
		<defs>
			<path id="SVGID_00000111889977720057309410000001556466193676626829_" d="M0,1780.505V311.233V0h581.164
				c-268.629,307.344-174.897,489.719-81.299,695.318C684.334,1100.53,608.781,1467.492,0,1780.505"/>
		</defs>
		<clipPath id="SVGID_00000110462302418169785420000004314994866916656263_">
			<use xlink:href="#SVGID_00000111889977720057309410000001556466193676626829_"  style="overflow:visible;"/>
		</clipPath>
		
			<linearGradient id="SVGID_00000036945196371541855720000016695734298698763196_" gradientUnits="userSpaceOnUse" x1="822.5641" y1="964.5504" x2="-60.9351" y2="827.909">
			<stop  offset="0" style="stop-color:#F95C97"/>
			<stop  offset="1" style="stop-color:#4E046D"/>
		</linearGradient>
		
			<rect x="0" style="opacity:0.83;clip-path:url(#SVGID_00000110462302418169785420000004314994866916656263_);fill:url(#SVGID_00000036945196371541855720000016695734298698763196_);" width="684.334" height="1780.505"/>
	</g>
	<g>
		<defs>
			<path id="SVGID_00000123406883406489325890000005795218449569265063_" d="M0,961.051V167.991V0h318.503
				c-147.22,165.895-95.85,264.333-44.554,375.306C375.048,594.025,333.639,792.098,0,961.051"/>
		</defs>
		<clipPath id="SVGID_00000157990500108831211850000016442311359307065989_">
			<use xlink:href="#SVGID_00000123406883406489325890000005795218449569265063_"  style="overflow:visible;"/>
		</clipPath>
		
			<linearGradient id="SVGID_00000085225256349561161040000009578689489813863561_" gradientUnits="userSpaceOnUse" x1="442.6407" y1="543.3145" x2="-145.1594" y2="398.6458">
			<stop  offset="0" style="stop-color:#F95C97"/>
			<stop  offset="1" style="stop-color:#4E046D"/>
		</linearGradient>
		
			<rect x="0" style="clip-path:url(#SVGID_00000157990500108831211850000016442311359307065989_);fill:url(#SVGID_00000085225256349561161040000009578689489813863561_);" width="375.048" height="961.051"/>
	</g>
	<g>
		<defs>
			<path id="SVGID_00000161630345310364609500000009446237122436463537_" d="M4309.479,810.103
				C4309.479,492.14,4574.196,204.93,5000,0c0,996.155,0,1924.074,0,2916H3858.321c-64.207-104.409-98.756-215.261-98.756-330.129
				c0-206.347,111.493-399.746,306.144-566.108c31.383-22.785,61.128-46.174,89.148-70.122
				C4762.206,1430.568,4309.479,1257.141,4309.479,810.103"/>
		</defs>
		<clipPath id="SVGID_00000076573497806446230820000013861492923868765630_">
			<use xlink:href="#SVGID_00000161630345310364609500000009446237122436463537_"  style="overflow:visible;"/>
		</clipPath>
		
			<linearGradient id="SVGID_00000179630933753926022100000012394038457566247566_" gradientUnits="userSpaceOnUse" x1="4732.4058" y1="1636.4882" x2="4046.7454" y2="1289.426">
			<stop  offset="0" style="stop-color:#3E005D"/>
			<stop  offset="1" style="stop-color:#641087"/>
		</linearGradient>
		
			<rect x="3759.565" style="clip-path:url(#SVGID_00000076573497806446230820000013861492923868765630_);fill:url(#SVGID_00000179630933753926022100000012394038457566247566_);" width="1240.435" height="2916"/>
	</g>
	<g>
		<defs>
			<path id="SVGID_00000076570198730493879440000006932038572885099680_" d="M5000,394.441v2080.794V2916h-925.121
				c427.62-435.261,278.406-693.542,129.414-984.712C3910.644,1357.427,4030.915,837.734,5000,394.441"/>
		</defs>
		<clipPath id="SVGID_00000034055918467593976330000016211390800418880916_">
			<use xlink:href="#SVGID_00000076570198730493879440000006932038572885099680_"  style="overflow:visible;"/>
		</clipPath>
		
			<linearGradient id="SVGID_00000013893530028817672130000006105950365765646521_" gradientUnits="userSpaceOnUse" x1="3804.1143" y1="1508.9319" x2="4773.0386" y2="1726.5931">
			<stop  offset="0" style="stop-color:#F95C97"/>
			<stop  offset="1" style="stop-color:#450561"/>
		</linearGradient>
		
			<rect x="3910.644" y="394.441" style="opacity:0.55;clip-path:url(#SVGID_00000034055918467593976330000016211390800418880916_);fill:url(#SVGID_00000013893530028817672130000006105950365765646521_);" width="1089.356" height="2521.559"/>
	</g>
	<g>
		<defs>
			<path id="SVGID_00000068659282724883962220000010456496076588735914_" d="M5000,1135.497v1469.272V2916h-581.161
				c268.629-307.344,174.895-489.719,81.294-695.315C4315.663,1815.469,4391.224,1448.51,5000,1135.497"/>
		</defs>
		<clipPath id="SVGID_00000082326019092992183120000004492103693999182240_">
			<use xlink:href="#SVGID_00000068659282724883962220000010456496076588735914_"  style="overflow:visible;"/>
		</clipPath>
		
			<linearGradient id="SVGID_00000082358900880307395810000015502805749103255990_" gradientUnits="userSpaceOnUse" x1="4177.4131" y1="1951.3875" x2="5060.9126" y2="2088.1389">
			<stop  offset="0" style="stop-color:#F95C97"/>
			<stop  offset="1" style="stop-color:#4E046D"/>
		</linearGradient>
		
			<rect x="4315.663" y="1135.497" style="opacity:0.83;clip-path:url(#SVGID_00000082326019092992183120000004492103693999182240_);fill:url(#SVGID_00000082358900880307395810000015502805749103255990_);" width="684.337" height="1780.503"/>
	</g>
	<g>
		<defs>
			<path id="SVGID_00000147939938279492650650000011615690638430461076_" d="M5000,1954.949v793.062V2916h-318.503
				c147.224-165.892,95.85-264.33,44.554-375.305C4624.955,2321.974,4666.361,2123.901,5000,1954.949"/>
		</defs>
		<clipPath id="SVGID_00000016042900398900268630000006252322663768224404_">
			<use xlink:href="#SVGID_00000147939938279492650650000011615690638430461076_"  style="overflow:visible;"/>
		</clipPath>
		
			<linearGradient id="SVGID_00000085936281360447009550000001485156775704366248_" gradientUnits="userSpaceOnUse" x1="4557.2915" y1="2372.6799" x2="5145.2017" y2="2517.3491">
			<stop  offset="0" style="stop-color:#F95C97"/>
			<stop  offset="1" style="stop-color:#4E046D"/>
		</linearGradient>
		
			<rect x="4624.955" y="1954.949" style="clip-path:url(#SVGID_00000016042900398900268630000006252322663768224404_);fill:url(#SVGID_00000085936281360447009550000001485156775704366248_);" width="375.045" height="961.051"/>
	</g>
</g>
</svg>
